<svg width="1175" height="1135" viewBox="0 0 1175 1135" fill="none" xmlns="http://www.w3.org/2000/svg">
<circle cx="543" cy="543" r="543" fill="#2A0037"/>
<path d="M182.506 760V305.455H483.465V384.689H278.609V492.999H463.49V572.234H278.609V760H182.506ZM548.107 760V305.455H644.21V680.765H839.078V760H548.107Z" fill="#E5E7EB"/>
<path d="M956.21 765.771C941.562 765.771 928.985 760.592 918.479 750.234C908.122 739.729 902.943 727.152 902.943 712.504C902.943 698.003 908.122 685.574 918.479 675.217C928.985 664.859 941.562 659.68 956.21 659.68C970.415 659.68 982.844 664.859 993.497 675.217C1004.15 685.574 1009.48 698.003 1009.48 712.504C1009.48 722.269 1006.96 731.221 1001.93 739.359C997.048 747.349 990.612 753.786 982.622 758.668C974.632 763.403 965.828 765.771 956.21 765.771Z" fill="#3882F6"/>
</svg>
