<svg width="1000" height="1008" viewBox="0 0 1000 1008" fill="none" xmlns="http://www.w3.org/2000/svg">
<ellipse cx="500" cy="504" rx="500" ry="504" fill="#2A0037"/>
<path d="M501.253 783C489.476 783 479.572 778.985 471.542 770.955C464.047 762.925 460.3 753.021 460.3 741.244V197.613C460.3 185.836 464.315 175.932 472.345 167.902C480.375 159.872 490.011 155.857 501.253 155.857C513.03 155.857 522.934 159.872 530.964 167.902C538.994 175.932 543.009 185.836 543.009 197.613V699.488H833.695C845.472 699.488 855.376 703.503 863.406 711.533C871.436 719.563 875.451 729.467 875.451 741.244C875.451 753.021 871.436 762.925 863.406 770.955C855.376 778.985 845.472 783 833.695 783H501.253Z" fill="#3882F6"/>
<path d="M290.467 783C278.69 783 268.786 778.985 260.756 770.955C252.726 762.925 248.711 753.021 248.711 741.244V197.613C248.711 185.3 252.726 175.397 260.756 167.902C268.786 159.872 278.69 155.857 290.467 155.857H653.423C665.736 155.857 675.639 159.604 683.134 167.099C690.629 174.058 694.376 183.427 694.376 195.204C694.376 206.446 690.629 215.547 683.134 222.506C675.639 229.465 665.736 232.945 653.423 232.945H332.223V428.074H562.684C574.997 428.074 584.9 431.821 592.395 439.316C599.89 446.275 603.637 455.376 603.637 466.618C603.637 477.86 599.89 487.228 592.395 494.723C584.9 501.682 574.997 505.162 562.684 505.162H332.223V741.244C332.223 753.021 328.208 762.925 320.178 770.955C312.148 778.985 302.244 783 290.467 783Z" fill="#E5E7EB"/>
</svg>
